<svg id="Layer_1" data-name="Layer 1" xmlns="http://www.w3.org/2000/svg" viewBox="0 0 24 24"><title>glasses_outlined</title><path d="M22.51,12.87l0,0-3.6-7.74A2,2,0,0,0,17.11,4H15.5a.5.5,0,0,0-.5.5v1a.5.5,0,0,0,.5.5h1.61L19,10.11a4.94,4.94,0,0,0-5.35,2.42A3,3,0,0,0,12,12a2.94,2.94,0,0,0-1.67.54A4.95,4.95,0,0,0,5,10.11L6.89,6H8.5A.5.5,0,0,0,9,5.5v-1A.5.5,0,0,0,8.5,4H6.89A2,2,0,0,0,5.07,5.15l-3.6,7.74,0,0A4.93,4.93,0,0,0,1,15a5,5,0,0,0,10,0,1,1,0,0,1,2,0,5,5,0,0,0,10,0A4.93,4.93,0,0,0,22.51,12.87ZM6,18a3,3,0,1,1,3-3A3,3,0,0,1,6,18Zm12,0a3,3,0,1,1,3-3A3,3,0,0,1,18,18Z"/></svg>