<svg id="Layer_1" data-name="Layer 1" xmlns="http://www.w3.org/2000/svg" viewBox="0 0 24 24"><title>bitcoin</title><path d="M10.75,9.75v1.37h3V9.75Zm0,3.13v1.37h3.5V12.88Zm0,0v1.37h3.5V12.88Zm0-3.13v1.37h3V9.75Zm0,0v1.37h3V9.75Zm0,3.13v1.37h3.5V12.88Zm0,0v1.37h3.5V12.88Zm3-3.13h-3v1.37h3ZM12,2A10,10,0,1,0,22,12,10,10,0,0,0,12,2Zm4,12a2,2,0,0,1-2,2H13v1.5a.5.5,0,0,1-.5.5h-1a.5.5,0,0,1-.5-.5V16H8.5a.5.5,0,0,1-.5-.5v-.75a.5.5,0,0,1,.5-.5h.25A.25.25,0,0,0,9,14V10a.25.25,0,0,0-.25-.25H8.5a.5.5,0,0,1-.5-.5V8.5A.5.5,0,0,1,8.5,8H11V6.5a.5.5,0,0,1,.5-.5h1a.5.5,0,0,1,.5.5V8h.5a2,2,0,0,1,2,2v.88a2,2,0,0,1-.16.77A2,2,0,0,1,16,13.12Zm-5.25.25h3.5V12.88h-3.5Zm3-4.5h-3v1.37h3Zm-3,0v1.37h3V9.75Zm0,3.13v1.37h3.5V12.88Zm0,0v1.37h3.5V12.88Zm0-3.13v1.37h3V9.75Z"/></svg>