<?xml version="1.0" encoding="utf-8"?>
<!-- Generator: Adobe Illustrator 22.1.0, SVG Export Plug-In . SVG Version: 6.00 Build 0)  -->
<svg version="1.1" id="Layer_1" xmlns="http://www.w3.org/2000/svg" xmlns:xlink="http://www.w3.org/1999/xlink" x="0px" y="0px"
	 viewBox="0 0 24 24" style="enable-background:new 0 0 24 24;" xml:space="preserve">
<title>bike</title>
<path d="M10.4,16c0.8,0,1.4-0.4,1.8-1.1L15.1,9h0.8l0.6,1.7C15,11.6,14,13.2,14,15c0,2.8,2.2,5,5,5s5-2.2,5-5s-2.2-5-5-5
	c-0.2,0-0.4,0-0.6,0.1l-1-3.1H19c0.4,0,0.8,0.3,0.9,0.7C20,7.9,20.2,8,20.4,8h1c0.2,0,0.3-0.1,0.4-0.2s0.1-0.3,0.1-0.4
	C21.7,6,20.4,5,19,5h-2.7c-0.4,0-0.8,0.2-1,0.5c-0.2,0.3-0.3,0.7-0.2,1.1L15.3,7h-7C7.6,7,7,7.6,7,8.2v0.3C7,8.7,7,8.8,6.9,9
	l-0.6,1.2C5.9,10.1,5.4,10,5,10c-2.8,0-5,2.2-5,5s2.2,5,5,5c2,0,3.8-1.2,4.6-3H7.2c-0.5,0.6-1.3,1-2.2,1c-1.7,0-3-1.3-3-3s1.3-3,3-3
	c0.1,0,0.2,0,0.4,0l-0.9,1.8c-0.2,0.5-0.2,1,0.1,1.5S5.3,16,5.8,16H10.4z M6.6,14l0.5-1.1c0.3,0.3,0.5,0.7,0.7,1.1H6.6z M10.4,14
	H9.9c-0.2-1.2-0.9-2.2-1.8-2.9l0.6-1.2C8.8,9.6,8.9,9.3,9,9h3.9L10.4,14z M19,18c-1.7,0-3-1.3-3-3c0-1,0.5-1.8,1.2-2.4l0.7,2.2
	c0.1,0.3,0.4,0.5,0.7,0.5h1.1c0.2,0,0.4-0.2,0.3-0.5l-1-2.9c1.6,0,2.9,1.4,2.9,3C22,16.7,20.7,18,19,18z M5.5,5h3C8.8,5,9,4.8,9,4.5
	v-1C9,3.2,8.8,3,8.5,3h-3C5.2,3,5,3.2,5,3.5v1C5,4.8,5.2,5,5.5,5z"/>
</svg>
