<svg id="Layer_1" data-name="Layer 1" xmlns="http://www.w3.org/2000/svg" viewBox="0 0 24 24"><title>traffic_light</title><path d="M19,6V4.5a.5.5,0,0,0-.5-.5H17a2,2,0,0,0-2-2H9A2,2,0,0,0,7,4H5.5a.5.5,0,0,0-.5.5V6A2,2,0,0,0,7,8v2H5.5a.5.5,0,0,0-.5.5V12a2,2,0,0,0,2,2v2H5.5a.5.5,0,0,0-.5.5V18a2,2,0,0,0,2,2,2,2,0,0,0,2,2h6a2,2,0,0,0,2-2,2,2,0,0,0,2-2V16.5a.5.5,0,0,0-.5-.5H17V14a2,2,0,0,0,2-2V10.5a.5.5,0,0,0-.5-.5H17V8A2,2,0,0,0,19,6ZM12,20a2,2,0,1,1,2-2A2,2,0,0,1,12,20Zm0-6a2,2,0,1,1,2-2A2,2,0,0,1,12,14Zm0-6a2,2,0,1,1,2-2A2,2,0,0,1,12,8Z"/></svg>