<svg id="Layer_1" data-name="Layer 1" xmlns="http://www.w3.org/2000/svg" viewBox="0 0 24 24"><title>dribbble</title><path d="M12,2A10,10,0,1,0,22,12,10,10,0,0,0,12,2Zm8,10v0a12.31,12.31,0,0,0-3.53-.52,12.49,12.49,0,0,0-2.12.21c-.25-.61-.51-1.2-.79-1.79A16.92,16.92,0,0,0,18,6.69,7.94,7.94,0,0,1,20,12ZM16.87,5.67a15.15,15.15,0,0,1-4,2.91,32.65,32.65,0,0,0-2.79-4.34A8.06,8.06,0,0,1,12,4,8,8,0,0,1,16.87,5.67ZM8.62,4.76A32.16,32.16,0,0,1,11.51,9.2,15.33,15.33,0,0,1,6,10.25a17.34,17.34,0,0,1-1.77-.11A8,8,0,0,1,8.62,4.76ZM4,12c0-.13,0-.25,0-.38a16.32,16.32,0,0,0,2,.13,16.68,16.68,0,0,0,6.19-1.21c.24.5.48,1,.69,1.52a12.22,12.22,0,0,0-6.82,5.28A8,8,0,0,1,4,12Zm3.18,6.37a10.71,10.71,0,0,1,6.23-4.91,29.83,29.83,0,0,1,1.49,6,7.93,7.93,0,0,1-7.72-1.08Zm9.13.36a32.7,32.7,0,0,0-1.42-5.61A11.88,11.88,0,0,1,16.47,13a10.73,10.73,0,0,1,3.38.55A8,8,0,0,1,16.31,18.73Z"/></svg>