<svg id="Layer_1" data-name="Layer 1" xmlns="http://www.w3.org/2000/svg" viewBox="0 0 24 24"><defs><style>.cls-1{fill-rule:evenodd;}</style></defs><title>facebook_square</title><path class="cls-1" d="M21,5V19a2,2,0,0,1-2,2H15.25a.5.5,0,0,1-.5-.5v-6h2.34a.5.5,0,0,0,.49-.4l.36-1.8a.25.25,0,0,0-.24-.3H14.75V8.75A.25.25,0,0,1,15,8.5h2.5A.5.5,0,0,0,18,8V6.5a.5.5,0,0,0-.5-.5H15a3,3,0,0,0-3,3v3H10.77a.5.5,0,0,0-.5.5V14a.5.5,0,0,0,.5.5H12v6a.5.5,0,0,1-.5.5H5a2,2,0,0,1-2-2V5A2,2,0,0,1,5,3H19A2,2,0,0,1,21,5Z"/></svg>