<svg id="Layer_1" data-name="Layer 1" xmlns="http://www.w3.org/2000/svg" viewBox="0 0 24 24"><title>shuffle</title><path d="M9.77,14.64l-1.89,1.9A5,5,0,0,1,4.34,18H3.5a.5.5,0,0,1-.5-.5v-1a.5.5,0,0,1,.5-.5h.84a3,3,0,0,0,2.12-.88l1.9-1.89Zm4.35,1.9A5.06,5.06,0,0,0,17,17.94V20a.5.5,0,0,0,.85.35l3-3a.51.51,0,0,0,0-.71l-3-3A.5.5,0,0,0,17,14v1.92a3,3,0,0,1-1.46-.8L12.41,12l3.13-3.12A3,3,0,0,1,17,8.08V10a.5.5,0,0,0,.85.35l3-3a.51.51,0,0,0,0-.71l-3-3A.5.5,0,0,0,17,4V6.06a5.06,5.06,0,0,0-2.88,1.4L11,10.59,7.88,7.46A5,5,0,0,0,4.34,6H3.5a.5.5,0,0,0-.5.5v1a.5.5,0,0,0,.5.5h.84a3,3,0,0,1,2.12.88Z"/></svg>