<svg id="Layer_1" data-name="Layer 1" xmlns="http://www.w3.org/2000/svg" viewBox="0 0 24 24"><title>running</title><path d="M15,4a2,2,0,1,1,2,2A2,2,0,0,1,15,4Zm5.6,6.75-1.93-.39A1,1,0,0,1,18.1,10L15.88,7.41A4,4,0,0,0,12.83,6H9.77a2,2,0,0,0-1.61.82L6.48,9.13a.5.5,0,0,0,.12.7l.8.58a.49.49,0,0,0,.7-.11l1.45-2A.77.77,0,0,1,10.16,8h1.55L9.29,11.21l-.16.22a1,1,0,0,0,.24,1.43l4.3,2.86a.78.78,0,0,1,.33.63V21.5a.5.5,0,0,0,.5.5h1a.5.5,0,0,0,.5-.5V16a2,2,0,0,0-.89-1.67L13,12.89l2.3-3.05,1.25,1.48a3,3,0,0,0,1.7,1l2.12.42a.5.5,0,0,0,.6-.49v-1A.5.5,0,0,0,20.6,10.75ZM8.37,15.7a.74.74,0,0,1-.6.3H4.5a.5.5,0,0,0-.5.5v1a.5.5,0,0,0,.5.5H8.15a2,2,0,0,0,1.6-.8l1-1.33L9.06,14.76Z"/></svg>