<svg id="Layer_1" data-name="Layer 1" xmlns="http://www.w3.org/2000/svg" viewBox="0 0 24 24"><title>notifications_on</title><path d="M10,20h4a2,2,0,0,1-4,0Zm8.88-5.12A3,3,0,0,1,18,12.76V10a6,6,0,0,0-1.2-3.6l-.9-1.2A3,3,0,0,0,13.5,4H13V2.5a.5.5,0,0,0-.5-.5h-1a.5.5,0,0,0-.5.5V4h-.5A3,3,0,0,0,8.1,5.2L7.2,6.4A6,6,0,0,0,6,10v2.76a3,3,0,0,1-.88,2.12l-.83.83a1,1,0,0,0-.29.7V17a1,1,0,0,0,1,1H19a1,1,0,0,0,1-1v-.59a1,1,0,0,0-.29-.7ZM5.59,5.21a.36.36,0,0,0-.06-.5l-1-.78a.4.4,0,0,0-.3-.09A.37.37,0,0,0,4,4,10.05,10.05,0,0,0,2,9.47a.47.47,0,0,0,.14.37.48.48,0,0,0,.36.16h1A.51.51,0,0,0,4,9.52,8.12,8.12,0,0,1,5.59,5.21ZM20,4a.38.38,0,0,0-.27-.16.44.44,0,0,0-.31.09l-1,.78a.36.36,0,0,0-.06.5A8.12,8.12,0,0,1,20,9.52a.5.5,0,0,0,.49.48h1a.5.5,0,0,0,.36-.16A.55.55,0,0,0,22,9.47,10.13,10.13,0,0,0,20,4Z"/></svg>