<svg id="Layer_1" data-name="Layer 1" xmlns="http://www.w3.org/2000/svg" viewBox="0 0 24 24"><title>canvas_graphics</title><path d="M21.5,16H21V6a2,2,0,0,0-2-2H13V2.5a.5.5,0,0,0-.5-.5h-1a.5.5,0,0,0-.5.5V4H5A2,2,0,0,0,3,6V16H2.5a.5.5,0,0,0-.5.5v1a.5.5,0,0,0,.5.5H7.31L5.14,21.1a.76.76,0,0,0-.14.43v.22a.25.25,0,0,0,.25.25H6.43a1,1,0,0,0,.82-.43L9.75,18h4.5l2.5,3.57a1,1,0,0,0,.82.43h1.18a.25.25,0,0,0,.25-.25v-.22a.76.76,0,0,0-.14-.43L16.69,18H21.5a.5.5,0,0,0,.5-.5v-1A.5.5,0,0,0,21.5,16ZM19,15.36a.64.64,0,0,1-.64.64h0a.67.67,0,0,1-.5-.24l-3.67-4.57a.5.5,0,0,0-.78,0l-2.29,2.88a.5.5,0,0,1-.79,0l-1-1.36a.51.51,0,0,0-.81,0l-2.23,3a.75.75,0,0,1-.6.3A.64.64,0,0,1,5,15.36V6H19ZM9.5,11A1.5,1.5,0,1,0,8,9.5,1.5,1.5,0,0,0,9.5,11Z"/></svg>