<svg id="Layer_1" data-name="Layer 1" xmlns="http://www.w3.org/2000/svg" viewBox="0 0 24 24"><title>flash_off</title><path d="M19.85,19.32l-.53.53a.48.48,0,0,1-.7,0l-4-4-3.55,5.78a.76.76,0,0,1-.64.36h-.2a.51.51,0,0,1-.37-.16.49.49,0,0,1-.13-.38L10.31,15H6.74a.76.76,0,0,1-.65-.38L6,14.42a.78.78,0,0,1,0-.77l2.45-4L4.15,5.38a.48.48,0,0,1,0-.7l.53-.53a.48.48,0,0,1,.7,0L19.85,18.62A.48.48,0,0,1,19.85,19.32Zm-1.83-9a.78.78,0,0,0,0-.77l-.12-.2A.76.76,0,0,0,17.26,9H13.69l.57-6.46a.49.49,0,0,0-.13-.38A.51.51,0,0,0,13.76,2h-.2a.76.76,0,0,0-.64.36L10.32,6.6l6.19,6.2Z"/></svg>