<svg id="Layer_1" data-name="Layer 1" xmlns="http://www.w3.org/2000/svg" viewBox="0 0 24 24"><title>clap</title><path d="M3.5,14.24v4.1a1.62,1.62,0,0,0,0,.22l-.63-.62A3.29,3.29,0,0,1,2,15.51v-4.1c0-1.9,1.37-3.2,1.73-5.24h0l.45-2.59a.5.5,0,0,1,.58-.4A1.5,1.5,0,0,1,6,4.28a.94.94,0,0,1,0,.41l-1,5.85A5.49,5.49,0,0,0,3.5,14.24ZM15,2.71a1,1,0,0,0-1.42-1.42l-4,4a3,3,0,0,1,.94,1.88Zm5.34,10.38-2,2a.5.5,0,0,1-.7,0,.5.5,0,0,1,0-.71l4.12-4.12a1,1,0,0,0,0-1.41,1,1,0,0,0-1.42,0L16.17,13a.5.5,0,0,1-.7,0,.5.5,0,0,1,0-.71L20.78,7a1,1,0,0,0,0-1.41,1,1,0,0,0-1.42,0l-5.31,5.31a.5.5,0,1,1-.71-.71L18,5.54a1,1,0,1,0-1.42-1.42L9,11.66V7.45A1.49,1.49,0,0,0,7.76,6a.5.5,0,0,0-.58.4L6.73,9C6.37,11,5,12.34,5,14.24v4.1a3.29,3.29,0,0,0,.88,2.43l1.36,1.35A3,3,0,0,0,9.36,23h.05a6.06,6.06,0,0,0,2.91-.75l3.09-1.72a5.07,5.07,0,0,0,1.11-.84l5.19-5.18a1,1,0,0,0-1.42-1.42Z"/></svg>