<svg id="Layer_1" data-name="Layer 1" xmlns="http://www.w3.org/2000/svg" viewBox="0 0 24 24"><title>slightly_smilling</title><path d="M12,2A10,10,0,1,0,22,12,10,10,0,0,0,12,2Zm0,18a8,8,0,1,1,8-8A8,8,0,0,1,12,20ZM15,8a2,2,0,0,0-2,2v.5a.5.5,0,0,0,.5.5h3a.5.5,0,0,0,.5-.5V10A2,2,0,0,0,15,8Zm-4.5,3a.5.5,0,0,0,.5-.5V10a2,2,0,0,0-4,0v.5a.5.5,0,0,0,.5.5Zm5.8,3-.87-.51a.51.51,0,0,0-.65.13,3.48,3.48,0,0,1-5.56,0,.51.51,0,0,0-.65-.13L7.7,14a.51.51,0,0,0-.24.33.49.49,0,0,0,.08.39,5.49,5.49,0,0,0,8.92,0,.49.49,0,0,0,.08-.39A.51.51,0,0,0,16.3,14Z"/></svg>