<svg id="Layer_1" data-name="Layer 1" xmlns="http://www.w3.org/2000/svg" viewBox="0 0 24 24"><title>thumbs_down</title><path d="M19,4.5a.5.5,0,0,1,.5-.5h2a.5.5,0,0,1,.5.5v9a.5.5,0,0,1-.5.5h-2a.5.5,0,0,1-.5-.5ZM4,14H9L7.45,17.11a4.15,4.15,0,0,0-.45,2v.37A1.5,1.5,0,0,0,8.5,21h.14a.5.5,0,0,0,.47-.34l.6-1.78a2,2,0,0,1,1.15-1.22l.43-.17a4.06,4.06,0,0,0,1.9-1.6l1.22-2a2,2,0,0,1,1.7-.94H17V5h-.59A3.41,3.41,0,0,1,14,4h0a3.41,3.41,0,0,0-2.41-1H5.35A2,2,0,0,0,3.5,4.26L2.43,6.93A6.06,6.06,0,0,0,2,9.16V12A2,2,0,0,0,4,14Z"/></svg>