<svg id="Layer_1" data-name="Layer 1" xmlns="http://www.w3.org/2000/svg" viewBox="0 0 24 24"><title>corona_virus</title><path d="M21.5,10h-1a.5.5,0,0,0-.5.5.5.5,0,0,1-.5.5H18.32a.51.51,0,0,1-.49-.38,5.76,5.76,0,0,0-.73-1.77.49.49,0,0,1,.08-.61L18,7.4a.51.51,0,0,1,.71,0,.48.48,0,0,0,.7,0l.71-.7a.5.5,0,0,0,0-.71L18,3.87a.5.5,0,0,0-.71,0l-.7.71a.48.48,0,0,0,0,.7.51.51,0,0,1,0,.71l-.84.83a.49.49,0,0,1-.61.08A6,6,0,0,0,13,6.09V4.5a.5.5,0,0,1,.5-.5.5.5,0,0,0,.5-.5v-1a.5.5,0,0,0-.5-.5h-3a.5.5,0,0,0-.5.5v1a.5.5,0,0,0,.5.5.5.5,0,0,1,.5.5V5.68a.51.51,0,0,1-.38.49,5.76,5.76,0,0,0-1.77.73.49.49,0,0,1-.61-.08L7.4,6a.51.51,0,0,1,0-.71.48.48,0,0,0,0-.7l-.7-.71a.5.5,0,0,0-.71,0L3.87,6a.5.5,0,0,0,0,.71l.71.7a.48.48,0,0,0,.7,0A.51.51,0,0,1,6,7.4l.83.84a.49.49,0,0,1,.08.61,5.76,5.76,0,0,0-.73,1.77.51.51,0,0,1-.49.38H4.5a.5.5,0,0,1-.5-.5.5.5,0,0,0-.5-.5h-1a.5.5,0,0,0-.5.5v3a.5.5,0,0,0,.5.5h1a.5.5,0,0,0,.5-.5.5.5,0,0,1,.5-.5H5.68a.51.51,0,0,1,.49.38,5.76,5.76,0,0,0,.73,1.77.49.49,0,0,1-.08.61L6,16.6a.51.51,0,0,1-.71,0,.48.48,0,0,0-.7,0l-.71.7a.5.5,0,0,0,0,.71L6,20.13a.5.5,0,0,0,.71,0l.7-.71a.48.48,0,0,0,0-.7.51.51,0,0,1,0-.71l.84-.83a.49.49,0,0,1,.61-.08,5.76,5.76,0,0,0,1.77.73.51.51,0,0,1,.38.49V19.5a.5.5,0,0,1-.5.5.5.5,0,0,0-.5.5v1a.5.5,0,0,0,.5.5h3a.5.5,0,0,0,.5-.5v-1a.5.5,0,0,0-.5-.5.5.5,0,0,1-.5-.5V18.32a.51.51,0,0,1,.38-.49,5.76,5.76,0,0,0,1.77-.73.49.49,0,0,1,.61.08l.84.83a.51.51,0,0,1,0,.71.48.48,0,0,0,0,.7l.7.71a.5.5,0,0,0,.71,0L20.13,18a.5.5,0,0,0,0-.71l-.71-.7a.48.48,0,0,0-.7,0,.51.51,0,0,1-.71,0l-.83-.84a.49.49,0,0,1-.08-.61,5.76,5.76,0,0,0,.73-1.77.51.51,0,0,1,.49-.38H19.5a.5.5,0,0,1,.5.5.5.5,0,0,0,.5.5h1a.5.5,0,0,0,.5-.5v-3A.5.5,0,0,0,21.5,10Zm-11,2A1.5,1.5,0,1,1,12,10.5,1.5,1.5,0,0,1,10.5,12Z"/></svg>