<svg id="Layer_1" data-name="Layer 1" xmlns="http://www.w3.org/2000/svg" viewBox="0 0 24 24"><title>corona_virus_stop</title><path d="M20.85,20.62a.48.48,0,0,1,0,.7l-.53.53a.48.48,0,0,1-.7,0L15,17.21a6.12,6.12,0,0,1-1.59.62.51.51,0,0,0-.38.49V19.5a.5.5,0,0,0,.5.5.5.5,0,0,1,.5.5v1a.5.5,0,0,1-.5.5h-3a.5.5,0,0,1-.5-.5v-1a.5.5,0,0,1,.5-.5.5.5,0,0,0,.5-.5V18.32a.51.51,0,0,0-.38-.49,5.76,5.76,0,0,1-1.77-.73.49.49,0,0,0-.61.08L7.4,18a.51.51,0,0,0,0,.71.48.48,0,0,1,0,.7l-.7.71a.5.5,0,0,1-.71,0L3.87,18a.5.5,0,0,1,0-.71l.71-.7a.48.48,0,0,1,.7,0,.51.51,0,0,0,.71,0l.83-.84a.49.49,0,0,0,.08-.61,5.76,5.76,0,0,1-.73-1.77A.51.51,0,0,0,5.68,13H4.5a.5.5,0,0,0-.5.5.5.5,0,0,1-.5.5h-1a.5.5,0,0,1-.5-.5v-3a.5.5,0,0,1,.5-.5h1a.5.5,0,0,1,.5.5.5.5,0,0,0,.5.5H5.68a.51.51,0,0,0,.49-.38A5.74,5.74,0,0,1,6.8,9L3.15,5.38a.48.48,0,0,1,0-.7l.53-.53a.48.48,0,0,1,.7,0ZM21.5,10h-1a.5.5,0,0,0-.5.5.5.5,0,0,1-.5.5H18.32a.51.51,0,0,1-.49-.38,5.76,5.76,0,0,0-.73-1.77.49.49,0,0,1,.08-.61L18,7.4a.51.51,0,0,1,.71,0,.48.48,0,0,0,.7,0l.71-.7a.5.5,0,0,0,0-.71L18,3.87a.5.5,0,0,0-.71,0l-.7.71a.48.48,0,0,0,0,.7.51.51,0,0,1,0,.71l-.84.83a.49.49,0,0,1-.61.08,5.76,5.76,0,0,0-1.77-.73A.51.51,0,0,1,13,5.68V4.5a.5.5,0,0,1,.5-.5.5.5,0,0,0,.5-.5v-1a.5.5,0,0,0-.5-.5h-3a.5.5,0,0,0-.5.5v1a.5.5,0,0,0,.5.5.5.5,0,0,1,.5.5V5.68a.51.51,0,0,1-.38.49,5.52,5.52,0,0,0-1.27.47l8,8a5.52,5.52,0,0,0,.47-1.27.51.51,0,0,1,.49-.38H19.5a.5.5,0,0,1,.5.5.5.5,0,0,0,.5.5h1a.5.5,0,0,0,.5-.5v-3A.5.5,0,0,0,21.5,10Z"/></svg>