<svg id="Layer_1" data-name="Layer 1" xmlns="http://www.w3.org/2000/svg" viewBox="0 0 24 24"><title>cover_safety_glasses</title><path d="M22.53,10.75l-2.6-5.6A2,2,0,0,0,18.11,4H16.5a.5.5,0,0,0-.5.5v1a.5.5,0,0,0,.5.5h1.61l1.73,3.71-4.22-.38c-1.2-.11-2.41-.17-3.62-.17s-2.42.06-3.62.17l-4.22.38L5.89,6H7.5A.5.5,0,0,0,8,5.5v-1A.5.5,0,0,0,7.5,4H5.89A2,2,0,0,0,4.07,5.15l-2.6,5.6A5,5,0,0,0,1,12.86v.59a5.67,5.67,0,0,0,.1,1.09l.53,2.88A3,3,0,0,0,4.6,20H8.75a2,2,0,0,0,1.8-1.11l.17-.34a1,1,0,0,1,.9-.55h.76a1,1,0,0,1,.9.55l.16.32A2,2,0,0,0,15.24,20H19.4a3,3,0,0,0,3-2.58l.53-2.88a5.67,5.67,0,0,0,.1-1.09v-.59A5,5,0,0,0,22.53,10.75ZM21,13.82l-.6,3.24v.08a1,1,0,0,1-1,.86H15.24l-.45-.89A2,2,0,0,0,13,16H11a2,2,0,0,0-1.79,1.11L8.76,18H4.6a1,1,0,0,1-1-.86v-.08L3,13.82v-.08a1,1,0,0,1,.91-1l4.65-.42c1.14-.1,2.3-.16,3.44-.16s2.3.06,3.44.16l4.65.42a1,1,0,0,1,.91,1Z"/></svg>