<svg id="Layer_1" data-name="Layer 1" xmlns="http://www.w3.org/2000/svg" viewBox="0 0 24 24"><title>disinfectant</title><path d="M15.26,8.87a1,1,0,0,0-1-.87H11a1,1,0,0,0-1,1v.76a3,3,0,0,1-.88,2.12L7.88,13.12A3,3,0,0,0,7,15.24V22a1,1,0,0,0,1,1h8a1,1,0,0,0,1-1.13ZM14,19H9.5a.5.5,0,0,1-.5-.5v-3a.5.5,0,0,1,.5-.5h4.12a.51.51,0,0,1,.5.43l.4,3A.51.51,0,0,1,14,19ZM7,2.5v-1A.5.5,0,0,1,7.5,1h4.79a2.94,2.94,0,0,1,1.34.32l1.09.54a.51.51,0,0,1,.28.45V3.5a.5.5,0,0,1-.5.5H14a1,1,0,0,0-1,1V6H11V3.92A6.84,6.84,0,0,1,9.74,5.55L8.36,6.86a.5.5,0,0,1-.7,0L7.14,6.3a.5.5,0,0,1,0-.7L8.53,4.28A5,5,0,0,0,9.48,3h-2A.5.5,0,0,1,7,2.5Z"/></svg>