<svg id="Layer_1" data-name="Layer 1" xmlns="http://www.w3.org/2000/svg" viewBox="0 0 24 24"><title>face_mask</title><path d="M20.5,6a.5.5,0,0,0-.5.5V8h-.3a1,1,0,0,1-.62-.22L16,5.31A6,6,0,0,0,12.25,4h-.5A6,6,0,0,0,8,5.31L4.92,7.78A1,1,0,0,1,4.3,8H4V6.5A.5.5,0,0,0,3.5,6h-1a.5.5,0,0,0-.5.5v4.63A5,5,0,0,0,3.78,15l4.47,3.89A5,5,0,0,0,11.45,20h1.1a5,5,0,0,0,3.22-1.17L20.21,15A5,5,0,0,0,22,11.13V6.5a.5.5,0,0,0-.5-.5ZM11,13.5v-3a.5.5,0,0,1,.5-.5h1a.5.5,0,0,1,.5.5v3a.5.5,0,0,1-.5.5h-1A.5.5,0,0,1,11,13.5Zm0-6v-1a.5.5,0,0,1,.5-.5h1a.5.5,0,0,1,.5.5v1a.5.5,0,0,1-.5.5h-1A.5.5,0,0,1,11,7.5Zm0,10v-1a.5.5,0,0,1,.5-.5h1a.5.5,0,0,1,.5.5v1a.5.5,0,0,1-.5.5h-1A.5.5,0,0,1,11,17.5Z"/></svg>