<svg id="Layer_1" data-name="Layer 1" xmlns="http://www.w3.org/2000/svg" viewBox="0 0 24 24"><title>face_mask_outlined</title><path d="M20.5,6a.5.5,0,0,0-.5.5V8h-.3a1,1,0,0,1-.62-.22L16,5.31A6,6,0,0,0,12.25,4h-.5A6,6,0,0,0,8,5.31L4.92,7.78A1,1,0,0,1,4.3,8H4V6.5A.5.5,0,0,0,3.5,6h-1a.5.5,0,0,0-.5.5v4.63A5,5,0,0,0,3.78,15l4.47,3.89A5,5,0,0,0,11.45,20h1.1a5,5,0,0,0,3.22-1.17L20.21,15A5,5,0,0,0,22,11.13V6.5a.5.5,0,0,0-.5-.5ZM20,11.13a3,3,0,0,1-1.08,2.3L14.47,17.3A2.9,2.9,0,0,1,13,18V16.5a.5.5,0,0,0-.5-.5h-1a.5.5,0,0,0-.5.5V18a3,3,0,0,1-1.46-.64L5.08,13.43A3,3,0,0,1,4,11.13V10h.3a3,3,0,0,0,1.87-.66L9.26,6.88A3.91,3.91,0,0,1,11,6.08V7.5a.5.5,0,0,0,.5.5h1a.5.5,0,0,0,.5-.5V6.08a3.91,3.91,0,0,1,1.74.8l3.09,2.46A3,3,0,0,0,19.7,10H20ZM11,13.5v-3a.5.5,0,0,1,.5-.5h1a.5.5,0,0,1,.5.5v3a.5.5,0,0,1-.5.5h-1A.5.5,0,0,1,11,13.5Z"/></svg>