<svg id="Layer_1" data-name="Layer 1" xmlns="http://www.w3.org/2000/svg" viewBox="0 0 24 24"><title>glove</title><path d="M21.71,10.68a1,1,0,1,0-1.42-1.42l-2,2a.5.5,0,0,1-.7,0,.5.5,0,0,1,0-.71l3.12-3.12a1,1,0,0,0,0-1.41,1,1,0,0,0-1.42,0L16.17,9.14a.5.5,0,0,1-.7,0,.5.5,0,0,1,0-.71l4.31-4.31a1,1,0,0,0,0-1.41,1,1,0,0,0-1.42,0L14.05,7a.5.5,0,0,1-.71-.71L17,2.71a1,1,0,0,0-1.42-1.42L10,6.83V2.62A1.49,1.49,0,0,0,8.76,1.18a.5.5,0,0,0-.58.4L7.73,4.17C7.37,6.21,6,7.51,6,9.41v1.32A3,3,0,0,1,4.94,13L2.35,15.21A1,1,0,0,0,2,16v.61a1,1,0,0,0,.54.89,3.3,3.3,0,0,1,1.3.72c.74.75.39,1.1,1.13,1.84s1.1.39,1.84,1.14a3.21,3.21,0,0,1,.72,1.29,1,1,0,0,0,.89.54H9a1,1,0,0,0,.7-.29l12-12h0Z"/></svg>