<svg id="Layer_1" data-name="Layer 1" xmlns="http://www.w3.org/2000/svg" viewBox="0 0 24 24"><title>hand_disinfection</title><path d="M20.71,12.29a1,1,0,0,0-1.42,0L16,15.59h0A2.5,2.5,0,0,1,13.5,18h-4a.5.5,0,0,1,0-1h4l.23,0h0A1.49,1.49,0,0,0,15,15.35,1.57,1.57,0,0,0,13.4,14H8.71a3.32,3.32,0,0,0-2.59.91L3.29,17.82a1,1,0,0,0,0,1.41l2.48,2.48a1,1,0,0,0,1.41,0L8.6,20.29A1,1,0,0,1,9.3,20h4.08a2.51,2.51,0,0,0,1.77-.73l5.56-5.56A1,1,0,0,0,20.71,12.29ZM15,12a2,2,0,0,0,2-2,6.27,6.27,0,0,0-2-3h0a6.09,6.09,0,0,0-2,3A2,2,0,0,0,15,12ZM8.48,2h.06a.33.33,0,0,1,.23.1C9.52,2.94,11,4.52,11,5.5a2.5,2.5,0,0,1-5,0C6,4.53,7.46,3,8.22,2.12A.32.32,0,0,1,8.48,2Z"/></svg>