<svg id="Layer_1" data-name="Layer 1" xmlns="http://www.w3.org/2000/svg" viewBox="0 0 24 24"><title>lungs</title><path d="M19.73,10.47A11.88,11.88,0,0,1,21,15.83V20a1,1,0,0,1-1,1h-.34a4,4,0,0,1-2.83-1.17l-1.49-1.49A8,8,0,0,1,13,12.69V10a1,1,0,0,0-2,0v2.69a8,8,0,0,1-2.34,5.65L7.17,19.83A4,4,0,0,1,4.34,21H4a1,1,0,0,1-1-1V15.83a11.88,11.88,0,0,1,1.27-5.36L6.45,6.11A2,2,0,0,1,8.24,5h.35a1,1,0,0,1,.7.29l.86.86a.49.49,0,0,0,.54.1A.48.48,0,0,0,11,5.79V3.5a.5.5,0,0,1,.5-.5h1a.5.5,0,0,1,.5.5V5.79a.48.48,0,0,0,.31.46.49.49,0,0,0,.54-.1l.86-.86a1,1,0,0,1,.7-.29h.35a2,2,0,0,1,1.79,1.11Z"/></svg>