<svg id="Layer_1" data-name="Layer 1" xmlns="http://www.w3.org/2000/svg" viewBox="0 0 24 24"><title>microscope</title><path d="M4,17.5v-1a.5.5,0,0,1,.5-.5H9.77l-1,2H4.5A.5.5,0,0,1,4,17.5ZM20,13v8a1,1,0,0,1-1,1H4.5a.5.5,0,0,1-.5-.5v-1a.5.5,0,0,1,.5-.5H10l3.72-7.45a1,1,0,0,1,.9-.55H16V10a3,3,0,0,0-3-3H10v4a1,1,0,0,1-1,1H8v1.5a.5.5,0,0,1-.5.5h-1a.5.5,0,0,1-.5-.5V12H5a1,1,0,0,1-1-1V3A1,1,0,0,1,5,2H9a1,1,0,0,1,1,1V5h3a5,5,0,0,1,5,5v2h1A1,1,0,0,1,20,13ZM8,4H6v6H8ZM18,17.5v-1a.5.5,0,0,0-.5-.5h-1a.5.5,0,0,0-.5.5v1a.5.5,0,0,0,.5.5h1A.5.5,0,0,0,18,17.5Z"/></svg>