<svg id="Layer_1" data-name="Layer 1" xmlns="http://www.w3.org/2000/svg" viewBox="0 0 24 24"><title>quarantine_outlined</title><path d="M19,21a1,1,0,0,0,1-1V14h1.5a.5.5,0,0,0,.5-.5V11.41a1,1,0,0,0-.29-.7L14.29,3.29a1,1,0,0,0-.7-.29H10.41a1,1,0,0,0-.7.29L2.29,10.71a1,1,0,0,0-.29.7V13.5a.5.5,0,0,0,.5.5H4v6a1,1,0,0,0,1,1ZM6,19V12.5a.5.5,0,0,0-.5-.5H4.05a.89.89,0,0,1,.24-.46L10.83,5h2.34l6.54,6.54A.89.89,0,0,1,20,12H18.5a.5.5,0,0,0-.5.5V19Zm8-8a2,2,0,1,1-2-2A2,2,0,0,1,14,11ZM8.05,16.28l.73-1.45A1.5,1.5,0,0,1,10.12,14h3.76a1.5,1.5,0,0,1,1.34.83L16,16.28a.5.5,0,0,1-.45.72h-7A.5.5,0,0,1,8.05,16.28Z"/></svg>