<svg id="Layer_1" data-name="Layer 1" xmlns="http://www.w3.org/2000/svg" viewBox="0 0 24 24"><title>respirator</title><path d="M20,9.41l1.85-1.85a.5.5,0,0,0,0-.71l-.7-.7a.5.5,0,0,0-.71,0L18.32,8.26c-.21-.11-.41-.22-.64-.32a6.09,6.09,0,0,1-2-1.45L14.34,5a3,3,0,0,0-2.28-1h-.12A3,3,0,0,0,9.66,5L8.32,6.49a6,6,0,0,1-2,1.45c-.23.1-.43.21-.64.32L3.56,6.15a.5.5,0,0,0-.71,0l-.7.7a.5.5,0,0,0,0,.71L4,9.41a5.33,5.33,0,0,0-2,3.95C2,17,6.49,20,12,20s10-3,10-6.64A5.33,5.33,0,0,0,20,9.41ZM12,18c-4.34,0-8-2.13-8-4.64C4,12,5.17,10.64,7.14,9.76A7.92,7.92,0,0,0,9.81,7.83l1.33-1.49a1.09,1.09,0,0,1,.8-.34h.12a1.09,1.09,0,0,1,.8.34l1.33,1.49a8.21,8.21,0,0,0,2.67,1.93c2,.88,3.14,2.23,3.14,3.6C20,15.87,16.34,18,12,18Zm1.5-6h-3a.5.5,0,0,1-.5-.5v-1a.5.5,0,0,1,.5-.5h3a.5.5,0,0,1,.5.5v1A.5.5,0,0,1,13.5,12Zm0,4h-3a.5.5,0,0,1-.5-.5v-1a.5.5,0,0,1,.5-.5h3a.5.5,0,0,1,.5.5v1A.5.5,0,0,1,13.5,16Z"/></svg>