<svg id="Layer_1" data-name="Layer 1" xmlns="http://www.w3.org/2000/svg" viewBox="0 0 24 24"><title>soap</title><path d="M17,10V9a1,1,0,0,0-1-1H12a1,1,0,0,0-1,1v1a2,2,0,0,0-2,2v9a1,1,0,0,0,1,1h8a1,1,0,0,0,1-1V12A2,2,0,0,0,17,10Zm0,7.5a.5.5,0,0,1-.5.5h-5a.5.5,0,0,1-.5-.5v-5a.5.5,0,0,1,.5-.5h5a.5.5,0,0,1,.5.5ZM9.24,4a2,2,0,0,0-1.41.59L6.56,5.85a.5.5,0,0,1-.71,0l-.7-.7a.5.5,0,0,1,0-.71L6.41,3.17A4,4,0,0,1,9.24,2H16.5a.5.5,0,0,1,.5.5v1a.5.5,0,0,1-.5.5H15V6H13V4ZM7,10a2,2,0,0,1-4,0A6.09,6.09,0,0,1,5,7H5A6.27,6.27,0,0,1,7,10Z"/></svg>