<svg id="Layer_1" data-name="Layer 1" xmlns="http://www.w3.org/2000/svg" viewBox="0 0 24 24"><title>vaccine</title><path d="M20.85,6.68,17.32,3.15a.5.5,0,0,0-.71,0l-.71.7a.51.51,0,0,0,0,.71L17,5.62l-2.2,2.21L12.28,5.35a.5.5,0,0,0-.7,0l-.71.71a.5.5,0,0,0,0,.71l.71.7-6.7,6.7a2,2,0,0,0-.48,2.06l.42,1.24L2.15,20.15A.5.5,0,0,0,2.5,21H3.7a1.05,1.05,0,0,0,.71-.29L6.09,19l1.68.57a2.05,2.05,0,0,0,.64.11,2,2,0,0,0,1.42-.59l6.7-6.7.7.71a.5.5,0,0,0,.71,0l.71-.71a.5.5,0,0,0,0-.7L16.17,9.24,18.38,7,19.44,8.1a.51.51,0,0,0,.71,0l.7-.71A.5.5,0,0,0,20.85,6.68ZM13.12,13H8.88L13,8.91l0,0L15.11,11Z"/></svg>