<svg id="Layer_1" data-name="Layer 1" xmlns="http://www.w3.org/2000/svg" viewBox="0 0 24 24"><title>washing_hands</title><path d="M21.71,13.09a1,1,0,0,1,0,1.42l-5.19,5.18a5.07,5.07,0,0,1-1.11.84l-3.09,1.72A6.06,6.06,0,0,1,9.41,23H9.36a3,3,0,0,1-2.12-.88L5.88,20.77A3.29,3.29,0,0,1,5,18.34v-4.1C5,12.34,6.37,11,6.73,9l.45-2.59A.5.5,0,0,1,7.76,6,1.49,1.49,0,0,1,9,7.45v4.21l7.53-7.54A1,1,0,1,1,18,5.54l-4.61,4.6a.5.5,0,1,0,.71.71l5.31-5.31a1,1,0,0,1,1.42,0,1,1,0,0,1,0,1.41l-5.31,5.31a.5.5,0,0,0,0,.71.5.5,0,0,0,.7,0l4.12-4.12a1,1,0,0,1,1.42,0,1,1,0,0,1,0,1.41l-4.12,4.12a.5.5,0,0,0,0,.71.5.5,0,0,0,.7,0l2-2A1,1,0,0,1,21.71,13.09ZM4.93,10.54,6,4.69a.94.94,0,0,0,0-.41,1.5,1.5,0,0,0-1.19-1.1.5.5,0,0,0-.58.4L3.73,6.17h0C3.37,8.21,2,9.51,2,11.41v4.1a3.29,3.29,0,0,0,.88,2.43l.63.62a1.62,1.62,0,0,1,0-.22v-4.1A5.49,5.49,0,0,1,4.93,10.54ZM12,6a2,2,0,0,0,2-2,6.27,6.27,0,0,0-2-3h0a6.09,6.09,0,0,0-2,3A2,2,0,0,0,12,6Z"/></svg>