<svg id="Layer_1" data-name="Layer 1" xmlns="http://www.w3.org/2000/svg" viewBox="0 0 24 24"><title>castl</title><path d="M20,3.5V8.76a3,3,0,0,1-.88,2.12l-1.83,1.83a1,1,0,0,0-.29.7V20.5a.5.5,0,0,1-.5.5h-2a.5.5,0,0,1-.5-.5V16.41a1,1,0,0,0-.29-.7l-.42-.42a1,1,0,0,0-.7-.29H11.41a1,1,0,0,0-.7.29l-.42.42a1,1,0,0,0-.29.7V20.5a.5.5,0,0,1-.5.5h-2a.5.5,0,0,1-.5-.5V13.41a1,1,0,0,0-.29-.7L4.88,10.88A3,3,0,0,1,4,8.76V3.5A.5.5,0,0,1,4.5,3h2a.5.5,0,0,1,.5.5v2a.5.5,0,0,0,.5.5h2a.5.5,0,0,0,.5-.5v-2a.5.5,0,0,1,.5-.5h3a.5.5,0,0,1,.5.5v2a.5.5,0,0,0,.5.5h2a.5.5,0,0,0,.5-.5v-2a.5.5,0,0,1,.5-.5h2A.5.5,0,0,1,20,3.5Z"/></svg>