<svg id="Layer_1" data-name="Layer 1" xmlns="http://www.w3.org/2000/svg" viewBox="0 0 24 24"><title>earth_west</title><path d="M12,2A10,10,0,1,0,22,12,10,10,0,0,0,12,2Zm6,15.27V17a1,1,0,0,0-1-1h-.5a.5.5,0,0,1-.5-.5.5.5,0,0,0-.5-.5h-1a.5.5,0,0,1-.5-.5.5.5,0,0,0-.5-.5H12v1.5a.51.51,0,0,0,.52.5.48.48,0,0,1,.48.5v3.43A8.26,8.26,0,0,1,12,20,8,8,0,0,1,5.08,8H5.5a.5.5,0,0,1,.5.5V11a1,1,0,0,0,1,1h.5a.5.5,0,0,1,.5.5V13a1,1,0,0,0,1,1h3V12.5a.5.5,0,0,0-.5-.5h-1a.5.5,0,0,1,0-1H11a1,1,0,0,0,1-1V9a1,1,0,0,1,1-1h.5a.5.5,0,0,0,.5-.5v-1a.5.5,0,0,0-.5-.5H6.73A8,8,0,0,1,18,17.27Z"/></svg>