<svg id="Layer_1" data-name="Layer 1" xmlns="http://www.w3.org/2000/svg" viewBox="0 0 24 24"><title>restaurant</title><path d="M12,2.5v8.26a3,3,0,0,1-.88,2.12l-.83.83a1,1,0,0,1-.7.29H9v7.5a.5.5,0,0,1-.5.5h-1a.5.5,0,0,1-.5-.5V14H6.41a1,1,0,0,1-.7-.29l-.83-.83A3,3,0,0,1,4,10.76V2.5A.5.5,0,0,1,4.5,2h.75a.5.5,0,0,1,.5.5v7a.5.5,0,0,0,.5.5h.37a.5.5,0,0,0,.5-.5v-7a.5.5,0,0,1,.5-.5h.76a.5.5,0,0,1,.5.5v7a.5.5,0,0,0,.5.5h.37a.5.5,0,0,0,.5-.5v-7a.5.5,0,0,1,.5-.5h.75A.5.5,0,0,1,12,2.5Zm8,0a.5.5,0,0,0-.5-.5H19a4,4,0,0,0-4,4v7a1,1,0,0,0,1,1h2v7.5a.5.5,0,0,0,.5.5h1a.5.5,0,0,0,.5-.5Z"/></svg>