<svg id="Layer_1" data-name="Layer 1" xmlns="http://www.w3.org/2000/svg" viewBox="0 0 24 24"><title>chart_donut_2</title><path d="M13,4.66v-2a.46.46,0,0,1,.18-.38.48.48,0,0,1,.4-.12,10,10,0,0,1,8.3,8.3.48.48,0,0,1-.12.4.46.46,0,0,1-.38.18h-2a.5.5,0,0,1-.49-.4A7,7,0,0,0,13.4,5.15.5.5,0,0,1,13,4.66ZM16.48,17.9a.49.49,0,0,0-.63-.06A6.9,6.9,0,0,1,12,19,7,7,0,0,1,10.6,5.15a.5.5,0,0,0,.4-.49v-2a.46.46,0,0,0-.18-.38.48.48,0,0,0-.4-.12,10,10,0,1,0,7.45,18,.53.53,0,0,0,.2-.37.5.5,0,0,0-.14-.39Zm4.9-4.9h-2a.5.5,0,0,0-.49.4,6.63,6.63,0,0,1-1,2.45.5.5,0,0,0,.06.63l1.45,1.45a.5.5,0,0,0,.39.14.51.51,0,0,0,.37-.21,10.17,10.17,0,0,0,1.77-4.28.48.48,0,0,0-.12-.4A.46.46,0,0,0,21.38,13Z"/></svg>