<?xml version="1.0" encoding="utf-8"?>
<!-- Generator: Adobe Illustrator 22.1.0, SVG Export Plug-In . SVG Version: 6.00 Build 0)  -->
<svg version="1.1" id="Layer_1" xmlns="http://www.w3.org/2000/svg" xmlns:xlink="http://www.w3.org/1999/xlink" x="0px" y="0px"
	 viewBox="0 0 24 24" style="enable-background:new 0 0 24 24;" xml:space="preserve">
<title>cloud_on</title>
<path d="M17.9,9C17.4,6.2,15,4,12,4c-3.3,0-6,2.7-6,6c-2.8,0-5,2.2-5,5s2.2,5,5,5h11.5c3,0,5.5-2.5,5.5-5.5C23,11.6,20.8,9.2,17.9,9
	z M15.5,11.6l-4.2,4.2c-0.2,0.2-0.5,0.2-0.7,0l-2.1-2.1c-0.2-0.2-0.2-0.5,0-0.7L9,12.5c0.2-0.2,0.5-0.2,0.7,0l1.2,1.2l3.4-3.4
	c0.2-0.2,0.5-0.2,0.7,0l0.5,0.5C15.7,11.1,15.7,11.4,15.5,11.6z"/>
</svg>
