<svg id="Layer_1" data-name="Layer 1" xmlns="http://www.w3.org/2000/svg" viewBox="0 0 24 24"><title>face_id</title><path d="M21,6V7.5a.5.5,0,0,1-.5.5h-1a.5.5,0,0,1-.5-.5V6a1,1,0,0,0-1-1H16.5a.5.5,0,0,1-.5-.5v-1a.5.5,0,0,1,.5-.5H18A3,3,0,0,1,21,6ZM7.5,19H6a1,1,0,0,1-1-1V16.5a.5.5,0,0,0-.5-.5h-1a.5.5,0,0,0-.5.5V18a3,3,0,0,0,3,3H7.5a.5.5,0,0,0,.5-.5v-1A.5.5,0,0,0,7.5,19ZM3.5,8h1A.5.5,0,0,0,5,7.5V6A1,1,0,0,1,6,5H7.5A.5.5,0,0,0,8,4.5v-1A.5.5,0,0,0,7.5,3H6A3,3,0,0,0,3,6V7.5A.5.5,0,0,0,3.5,8Zm17,8h-1a.5.5,0,0,0-.5.5V18a1,1,0,0,1-1,1H16.5a.5.5,0,0,0-.5.5v1a.5.5,0,0,0,.5.5H18a3,3,0,0,0,3-3V16.5A.5.5,0,0,0,20.5,16ZM9,10.5v-2A.5.5,0,0,0,8.5,8h-1a.5.5,0,0,0-.5.5v2a.5.5,0,0,0,.5.5h1A.5.5,0,0,0,9,10.5Zm8,0v-2a.5.5,0,0,0-.5-.5h-1a.5.5,0,0,0-.5.5v2a.5.5,0,0,0,.5.5h1A.5.5,0,0,0,17,10.5ZM10.5,14A2.5,2.5,0,0,0,13,11.5v-3a.5.5,0,0,0-.5-.5h-1a.5.5,0,0,0-.5.5v3a.5.5,0,0,1-.5.5.5.5,0,0,0-.5.5v1A.5.5,0,0,0,10.5,14Zm4.18,1.57a.51.51,0,0,0-.67-.11,4.11,4.11,0,0,1-4,0,.51.51,0,0,0-.67.11l-.6.81a.49.49,0,0,0,.11.72A6,6,0,0,0,12,18a5.92,5.92,0,0,0,3.16-.9.49.49,0,0,0,.12-.72Z"/></svg>