<svg id="Layer_1" data-name="Layer 1" xmlns="http://www.w3.org/2000/svg" viewBox="0 0 24 24"><title>virtual_reality</title><path d="M22.11,8.87,19,5.76A6,6,0,0,0,14.76,4H9.24A6,6,0,0,0,5,5.76L1.89,8.87A3,3,0,0,0,1,11v6a3,3,0,0,0,3,3H8.76a2,2,0,0,0,1.79-1.11l.17-.34a1,1,0,0,1,.9-.55h.76a1,1,0,0,1,.9.55l.17.34A2,2,0,0,0,15.24,20H20a3,3,0,0,0,3-3V11A3,3,0,0,0,22.11,8.87ZM6.42,7.17A4,4,0,0,1,9.24,6h5.52a4,4,0,0,1,2.82,1.17l.83.83H5.59ZM19,13.5a.5.5,0,0,1-.5.5H5.5a.5.5,0,0,1-.5-.5v-1a.5.5,0,0,1,.5-.5h13a.5.5,0,0,1,.5.5Z"/></svg>