<svg id="Layer_1" data-name="Layer 1" xmlns="http://www.w3.org/2000/svg" viewBox="0 0 24 24"><title>wifi</title><path d="M22.78,9.25a.46.46,0,0,1-.13.33l-1.32,1.5a.48.48,0,0,1-.36.16c-.52,0-3.29-3.24-9-3.24s-8.45,3.24-9,3.24a.48.48,0,0,1-.36-.16L1.35,9.58a.46.46,0,0,1-.13-.33C1.22,8.55,6,5,12,5,17.81,5,22.78,8.48,22.78,9.25ZM12,11c-3.61,0-6.81,2.08-6.81,2.74a.55.55,0,0,0,.13.34l1.33,1.5a.48.48,0,0,0,.36.16c.53,0,1.77-1.74,5-1.74s4.5,1.74,5,1.74a.48.48,0,0,0,.36-.16l1.33-1.5a.55.55,0,0,0,.13-.34C18.81,13.09,15.6,11,12,11Zm0,6c-1.09,0-2.82.58-2.82,1.26a.52.52,0,0,0,.12.33l1,1.16a.73.73,0,0,0,.56.25h2.22a.73.73,0,0,0,.56-.25l1-1.16a.52.52,0,0,0,.12-.33C14.82,17.59,13.11,17,12,17Z"/></svg>